<?xml version="1.0" encoding="utf-8"?>
<!-- Generator: Adobe Illustrator 27.7.0, SVG Export Plug-In . SVG Version: 6.00 Build 0)  -->
<svg version="1.1" id="b" xmlns="http://www.w3.org/2000/svg" xmlns:xlink="http://www.w3.org/1999/xlink" x="0px" y="0px"
	 viewBox="0 0 16 16" style="enable-background:new 0 0 16 16;" xml:space="preserve">
<style type="text/css">
	.st0{fill:#333333;}
	.st1{fill:#FFFFFF;}
</style>
<g id="c">
	<path class="st0" d="M16,16H0V0h16V16z"/>
	<path class="st1" d="M6.9,2.3c-0.6,0-1.1,0.5-1.1,1.1v0.7c0,0.6,0.5,1.1,1.1,1.1h2.1c0.6,0,1.1-0.5,1.1-1.1V3.4
		c0-0.6-0.5-1.1-1.1-1.1H6.9z M9.1,3c0.2,0,0.4,0.2,0.4,0.4v0.7c0,0.2-0.2,0.4-0.4,0.4H6.9c-0.2,0-0.4-0.2-0.4-0.4V3.4
		C6.6,3.2,6.7,3,6.9,3H9.1z"/>
	<path class="st1" d="M5.1,3.4H4.4C3.6,3.4,3,4,3,4.8v7.5c0,0.8,0.6,1.4,1.4,1.4h7.1c0.8,0,1.4-0.6,1.4-1.4V4.8
		c0-0.8-0.6-1.4-1.4-1.4h-0.7v0.7c0,1-0.8,1.8-1.8,1.8H6.9c-1,0-1.8-0.8-1.8-1.8V3.4z M10,8.6l-2.1,2.1c-0.1,0.1-0.4,0.1-0.5,0
		c0,0,0,0,0,0L6.3,9.7c-0.1-0.1-0.1-0.4,0-0.5C6.5,9,6.7,9,6.8,9.2L7.6,10l1.9-1.9C9.7,8,9.9,8,10,8.1C10.2,8.2,10.2,8.5,10,8.6z"/>
</g>
</svg>
